<svg width="28" height="22" viewBox="0 0 28 22" fill="none" xmlns="http://www.w3.org/2000/svg">
<path d="M11.3119 16.709C9.70386 16.709 8.41113 17.8845 8.41113 19.3119C8.41113 20.7673 9.70386 21.9428 11.3119 21.9428C12.9199 21.9428 14.2127 20.7673 14.2127 19.3119C14.2127 17.8565 12.9199 16.709 11.3119 16.709ZM11.3119 20.2635C10.7444 20.2635 10.3029 19.8437 10.3029 19.3119C10.3029 18.8081 10.7444 18.3883 11.3119 18.3883C11.8794 18.3883 12.3209 18.8081 12.3209 19.3119C12.3209 19.8157 11.8794 20.2635 11.3119 20.2635Z" fill="#9758A6"/>
<path d="M22.8832 16.709C21.2752 16.709 19.9824 17.8845 19.9824 19.3119C19.9824 20.7673 21.2752 21.9428 22.8832 21.9428C24.4912 21.9428 25.784 20.7673 25.784 19.3119C25.7524 17.8565 24.4597 16.709 22.8832 16.709ZM22.8832 20.2635C22.3156 20.2635 21.8742 19.8437 21.8742 19.3119C21.8742 18.8081 22.3156 18.3883 22.8832 18.3883C23.4507 18.3883 23.8921 18.8081 23.8921 19.3119C23.8606 19.8157 23.4192 20.2635 22.8832 20.2635Z" fill="#9758A6"/>
<path d="M26.856 3.27463C26.6668 3.05073 26.3831 2.93877 26.0993 2.93877H7.40201L6.99212 1.76326C6.61376 0.699708 5.54174 0 4.28054 0H1.34824C0.812234 0 0.402344 0.363848 0.402344 0.83965C0.402344 1.31545 0.812234 1.6793 1.34824 1.6793H4.28054C4.69043 1.6793 5.06879 1.90321 5.19491 2.26705L8.63168 11.895L8.60015 11.979C8.19026 12.8466 8.28485 13.8262 8.85239 14.6379C9.45146 15.4216 10.4289 15.8974 11.5009 15.8974H24.4282C24.9642 15.8974 25.3741 15.5335 25.3741 15.0577C25.3741 14.5819 24.9642 14.2181 24.4282 14.2181H11.5009C11.0595 14.2181 10.6811 14.0222 10.4604 13.7143C10.2397 13.4064 10.1766 13.0146 10.3343 12.6787H21.4013C22.9148 12.6787 24.239 11.8111 24.712 10.5236L27.0137 4.03032C27.0767 3.77842 27.0137 3.49854 26.856 3.27463ZM21.3698 10.9994H10.2712L8.00108 4.61807H24.8066L22.9148 10.0198C22.6625 10.6076 22.0635 10.9994 21.3698 10.9994Z" fill="#9758A6"/>
</svg>
